<svg width="68" height="64" viewBox="0 0 68 64" fill="none" xmlns="http://www.w3.org/2000/svg">
<g clip-path="url(#clip0)">
<path fill-rule="evenodd" clip-rule="evenodd" d="M33.5663 62.7239L32.9672 62.252C31.5272 61.1397 29.1423 59.3727 28.2186 58.3909C24.479 54.423 19.2853 48.6883 15.9483 40.5226C12.6137 32.3569 11.7824 24.1437 11.6758 18.6936C11.5811 13.9051 12.0003 10.127 12.7842 5.54492L15.3349 7.38772C15.4723 7.48733 18.7264 9.85191 22.7786 14.1541C26.0137 17.586 30.3075 22.8677 33.5663 29.5179C36.8252 22.8677 41.119 17.586 44.3541 14.1541C48.4063 9.85428 51.6604 7.48733 51.7978 7.38772L54.3485 5.54492C55.1301 10.127 55.5516 13.9051 55.4569 18.6936C55.3503 24.1461 54.519 32.3568 51.1844 40.5249C47.8474 48.6907 42.6537 54.4254 38.9141 58.3932C37.9904 59.3751 35.6031 61.142 34.1655 62.2543L33.5663 62.7239Z" fill="#019D8B"/>
<path fill-rule="evenodd" clip-rule="evenodd" d="M0.217887 21.8338L0 18.6936L2.91542 19.8819C3.42698 20.0882 14.5842 24.7225 23.2926 35.0275C23.2784 34.546 23.2689 34.0646 23.2689 33.576C23.2689 21.459 27.2335 10.1627 33.5664 0C39.8994 10.1627 43.864 21.459 43.864 33.576C43.864 34.0646 43.8545 34.546 43.8403 35.0275C52.5487 24.7225 63.7059 20.0906 64.2174 19.8819L67.1329 18.6936L66.915 21.8338C63.1138 78.0546 4.01907 78.0546 0.217887 21.8338Z" fill="url(#paint0_linear)"/>
<path fill-rule="evenodd" clip-rule="evenodd" d="M30.1136 50.4458C29.3131 50.4458 28.991 50.7565 28.991 51.5202C28.991 53.382 31.0467 54.8927 33.5713 54.8927C36.096 54.8927 38.1446 53.3796 38.1446 51.5202C38.1446 50.7565 37.8201 50.4458 37.022 50.4458C36.5981 50.46 36.1694 50.5051 35.7502 50.5739L35.7099 50.581C35.0042 50.6972 34.2818 50.7636 33.569 50.7755C32.8561 50.7636 32.1314 50.6972 31.4256 50.581C30.9922 50.5075 30.5517 50.46 30.1136 50.4458Z" fill="#019D8B"/>
<path d="M21.8834 50.6523C23.9174 50.6523 25.5662 49.0012 25.5662 46.9643C25.5662 44.9275 23.9174 43.2764 21.8834 43.2764C19.8495 43.2764 18.2007 44.9275 18.2007 46.9643C18.2007 49.0012 19.8495 50.6523 21.8834 50.6523Z" fill="#019D8B"/>
<path d="M45.2448 50.6523C47.2787 50.6523 48.9275 49.0012 48.9275 46.9643C48.9275 44.9275 47.2787 43.2764 45.2448 43.2764C43.2108 43.2764 41.562 44.9275 41.562 46.9643C41.562 49.0012 43.2108 50.6523 45.2448 50.6523Z" fill="#019D8B"/>
</g>
<defs>
<linearGradient id="paint0_linear" x1="33.5664" y1="-6.39994" x2="33.5664" y2="63.9994" gradientUnits="userSpaceOnUse">
<stop stop-color="#00B59C"/>
<stop offset="1" stop-color="#8EF8AB"/>
</linearGradient>
<clipPath id="clip0">
<rect width="67.1329" height="64" fill="white"/>
</clipPath>
</defs>
</svg>
